Coordinates
version=1
nRows=19
nColumns=34
inDegrees=yes

Units are S.I. units (second, meters, Newtons, ...)
If the header above contains a line with 'inDegrees', this indicates whether rotational values are in degrees (yes) or radians (no).

endheader
time	pelvis_tilt	pelvis_list	pelvis_rotation	pelvis_tx	pelvis_ty	pelvis_tz	hip_flexion_r	hip_adduction_r	hip_rotation_r	knee_angle_r	ankle_angle_r	subtalar_angle_r	mtp_angle_r	hip_flexion_l	hip_adduction_l	hip_rotation_l	knee_angle_l	ankle_angle_l	subtalar_angle_l	mtp_angle_l	lumbar_extension	lumbar_bending	lumbar_rotation	arm_flex_r	arm_add_r	arm_rot_r	elbow_flex_r	pro_sup_r	arm_flex_l	arm_add_l	arm_rot_l	elbow_flex_l	pro_sup_l
      6.60000000	     -9.64675493	      4.02475532	     -0.92297026	      0.91897380	      0.99197007	     -0.10574357	     15.16524122	     -7.32196694	     -1.61562730	      8.17343894	    -21.61020448	      0.42259914	      0.00000000	     16.26745598	     -3.47463256	     -3.16170909	     10.21895093	    -22.30621258	     -0.91150076	      0.00000000	     -9.79611667	      0.97474702	      3.03851833	      7.39505636	    -20.73251288	     54.94426182	     25.49350128	     51.40496267	     -2.97191995	    -24.88177420	     34.08387522	     46.27461610	     59.41776727
      6.61666670	     -9.02304535	      4.00076669	     -0.96545135	      0.91187253	      0.96192778	     -0.10401006	     15.62759584	     -7.07026181	     -0.83663336	     10.94893703	    -16.44831513	     -0.97341349	      0.00000000	     17.20215323	     -3.71360264	     -1.88427238	     14.39535372	    -18.33662815	     -2.36042903	      0.00000000	    -11.16780187	      0.75570821	      3.28412872	      9.99041690	    -20.80965065	     54.40252103	     25.38821319	     51.52829882	     -0.57572605	    -24.67464881	     33.62521205	     46.29868874	     59.57468703
      6.63333330	     -8.07730170	      3.90680965	     -1.28244942	      0.91042385	      0.92879457	     -0.10901365	     16.80044044	     -6.76017451	     -0.43333851	     16.33414356	     -7.57821423	     -3.72317156	      0.00000000	     18.43105766	     -4.06306445	     -1.29557166	     20.28433942	    -10.19101171	     -3.10214432	      0.00000000	    -13.31496889	      0.64927098	      3.72729762	     12.64916921	    -20.83932698	     53.15231137	     24.98209299	     51.99113845	      2.16880481	    -23.91275798	     32.77860681	     45.43905290	     60.05750006
      6.65000000	     -6.97909397	      3.86020423	     -1.47398126	      0.90399004	      0.89279029	     -0.11379136	     19.54563244	     -6.60748762	      0.38993771	     24.39160760	      2.54513111	     -7.98231337	      0.00000000	     20.53611716	     -4.28647113	     -1.46731300	     27.57983851	     -0.22837586	     -4.54787452	      0.00000000	    -16.62253873	      0.38084207	      4.06632435	     15.74477937	    -21.01759210	     51.31127996	     25.15213346	     52.48990841	      5.53008512	    -22.87997204	     31.57295343	     44.78314839	     60.55984111
      6.66666670	     -5.77969594	      3.84004424	     -1.42625252	      0.90281475	      0.86148957	     -0.11810696	     23.44447934	     -6.77708071	      1.36049465	     34.58381353	     12.82587918	    -11.43185668	      0.00000000	     23.70962473	     -4.59033410	     -1.89352592	     36.69915008	     10.45387890	     -5.24047056	      0.00000000	    -20.47252897	      0.19592073	      4.31475425	     18.70913045	    -21.21760953	     49.35987851	     25.43582104	     53.07252280	      8.97623772	    -21.58243216	     30.27097970	     44.15252601	     61.06446783
      6.68333330	     -5.00598439	      3.85703545	     -1.34257533	      0.90582987	      0.84185484	     -0.12387002	     28.39351911	     -7.34476218	      1.86958335	     45.74098915	     21.22822271	    -12.82064149	      0.00000000	     27.50061474	     -4.92271678	     -2.04752412	     46.05765323	     20.32686388	     -4.41021564	      0.00000000	    -23.93292020	      0.30600906	      4.24779272	     21.34695488	    -21.21748689	     47.06612534	     25.69168397	     53.76499949	     11.62425451	    -19.85413489	     28.94732351	     42.84640474	     61.55016883
      6.70000000	     -4.70477972	      3.73189147	     -0.87945701	      0.89367660	      0.84138772	     -0.12464656	     32.70589273	     -7.74780899	      2.14148137	     54.12859521	     26.63003918	    -12.74976820	      0.00000000	     31.17794130	     -5.17252502	     -1.67072620	     53.12321269	     26.78471826	     -3.16828682	      0.00000000	    -27.66995387	      0.16085071	      5.67248452	     21.49145859	    -20.95014039	     32.70141533	     28.42087983	     65.42486269	     17.11569305	    -16.90224109	     29.30063345	     38.68526099	     68.82368391
      6.71666670	     -3.86942062	      3.80062302	     -0.93956408	      0.89364722	      0.83483435	     -0.12147112	     35.37699137	     -7.99977655	      2.50357270	     60.32301096	     30.15230873	    -11.64715696	      0.00000000	     32.78566742	     -5.76051355	     -2.03065824	     57.86518455	     30.85473540	     -1.16794165	      0.00000000	    -31.41175393	     -0.18111871	      4.82950583	     25.07660442	    -19.53625859	     32.42629296	     27.85283121	     66.29075763	     20.23616308	    -14.99038705	     28.68773072	     36.14083007	     68.77205303
      6.73333330	     -3.54134718	      3.72274737	     -0.97184071	      0.88640720	      0.82724906	     -0.12020224	     37.28222835	     -8.05005066	      2.35529823	     63.87110550	     32.03079456	    -10.46816116	      0.00000000	     34.30603811	     -6.52484589	     -2.27128725	     60.91083072	     33.07161825	      0.46146431	      0.00000000	    -34.52867657	     -0.48349345	      4.38262942	     27.94376522	    -17.83943910	     31.84430261	     26.62607095	     67.96905311	     24.13549232	    -12.47242376	     29.23312903	     32.15793311	     69.01535111
      6.75000000	     -3.31288131	      3.80287071	     -1.36994438	      0.88152391	      0.82228650	     -0.12643242	     38.32083304	     -8.44534653	      2.36356598	     65.44159724	     32.48579674	     -9.27263226	      0.00000000	     35.34077555	     -6.88651769	     -2.78970516	     62.59903473	     33.64756391	      0.94339204	      0.00000000	    -36.93375275	     -0.75178959	      3.83961847	     30.31630361	    -16.35060011	     29.91057570	     26.89639340	     71.86104323	     28.11593134	    -10.20066571	     33.42631469	     27.31982411	     69.85207746
      6.76666670	     -3.71987868	      3.94501305	     -1.54834375	      0.87523811	      0.81520433	     -0.12454350	     39.59666922	     -8.99004244	      2.08906786	     65.99979036	     32.75639841	     -7.62317100	      0.00000000	     36.63518261	     -7.17919929	     -3.30223118	     63.36992959	     34.42432837	      2.04121503	      0.00000000	    -38.62748998	     -0.96162069	      2.39822179	     32.40424724	    -14.27886224	     29.41712627	     28.26006347	     72.23437889	     30.33853090	     -9.01452022	     33.89119105	     26.74812674	     69.89920359
      6.78333330	     -4.83021106	      4.05278990	     -1.94964235	      0.85811947	      0.81396729	     -0.12690473	     41.73845753	     -9.28995433	      2.05451756	     65.66095866	     32.65008991	     -6.17425721	      0.00000000	     39.07846330	     -7.19740188	     -3.64271976	     64.05523273	     34.07697415	      1.93570615	      0.00000000	    -39.08600411	     -1.48368786	      2.95688542	     32.93402493	    -13.23111471	     24.09430217	     31.25716188	     76.95932087	     35.52524440	     -6.17219277	     42.41093931	     22.23221211	     70.99806401
      6.80000000	     -5.82609421	      4.18184929	     -2.29391040	      0.85435745	      0.81674024	     -0.12487194	     43.00671330	     -9.45896272	      1.89983529	     64.55232441	     32.00546702	     -5.26162882	      0.00000000	     40.26590772	     -7.27095423	     -3.75721099	     63.27236066	     33.37993075	      2.12615068	      0.00000000	    -39.06899036	     -1.75734664	      2.64658574	     33.00841610	    -11.73242425	     20.91389099	     34.64058419	     85.63078892	     38.48509593	     -4.65852078	     49.27250817	     21.17825055	     67.96218427
      6.81666670	     -6.56677891	      4.27107224	     -2.46331920	      0.86179180	      0.81974403	     -0.12421638	     42.89325270	     -9.59023110	      1.61107366	     62.71594730	     31.10618747	     -4.61271747	      0.00000000	     40.19392935	     -7.25682742	     -3.75162818	     61.63045158	     32.43748180	      2.68322570	      0.00000000	    -38.05512350	     -1.61560104	      1.71480651	     32.61056055	     -9.95934385	     21.04424696	     35.33707205	     85.78099521	     39.05610306	     -3.58680340	     49.38013290	     21.28763938	     67.84947420
      6.83333330	     -6.98342661	      4.30262683	     -2.66181296	      0.86811977	      0.82513510	     -0.12366732	     41.80387654	     -9.60413584	      1.28078052	     60.38336272	     30.54012543	     -4.18647138	      0.00000000	     39.24614348	     -7.16275339	     -3.82709624	     59.54066640	     31.78233519	      2.99919291	      0.00000000	    -36.31909374	     -1.50725468	      1.15507381	     30.82351575	     -8.66362250	     21.35195206	     35.59085286	     85.88369894	     38.36765775	     -2.60154497	     49.62545536	     21.53214316	     67.86234482
      6.85000000	     -6.82121533	      4.41288886	     -3.00336319	      0.87415515	      0.83318047	     -0.12253930	     39.56346061	     -9.69577270	      0.90920534	     57.66055906	     29.56825973	     -3.61115961	      0.00000000	     36.84358696	     -6.91808694	     -4.14243297	     56.52679618	     30.61457758	      3.23671324	      0.00000000	    -34.87861628	     -1.47781752	      1.12131130	     27.82738007	     -7.99381043	     19.22972163	     37.84993789	     87.11001233	     37.38198655	     -1.93811406	     50.61891421	     22.58189641	     67.99486096
      6.86666670	     -7.32712034	      4.65280729	     -3.38798536	      0.87149540	      0.84030431	     -0.12286711	     38.54553433	     -9.76514759	      0.76554594	     55.16169293	     28.37502014	     -3.43710940	      0.00000000	     35.67534394	     -6.51966198	     -4.61400247	     53.89739211	     29.27490024	      2.68061485	      0.00000000	    -32.29834877	     -1.55721554	      0.73391446	     25.41419589	     -7.20815573	     18.69450380	     38.12111222	     87.70810547	     35.99662963	     -1.64081216	     50.64995859	     23.26538343	     68.18143697
      6.88333330	     -7.45512593	      4.63308534	     -3.82679685	      0.87422289	      0.85799724	     -0.11784197	     36.42692662	     -9.20627813	      0.61103746	     51.43873994	     26.65836175	     -3.66639667	      0.00000000	     33.39663789	     -6.30706693	     -4.92233170	     50.06000148	     26.96004537	      2.04058115	      0.00000000	    -30.17011866	     -1.52099647	      0.79298682	     22.97859880	     -6.79045779	     17.95789322	     37.95801722	     88.21402119	     34.60389870	     -1.56988870	     50.09785657	     24.70831959	     68.45382446
      6.90000000	     -7.77586799	      4.67893643	     -4.02619393	      0.87867428	      0.86947663	     -0.11754290	     34.34891295	     -8.88644383	      0.37697008	     47.48905693	     25.08422314	     -3.44107741	      0.00000000	     31.23849420	     -5.86869524	     -4.99942462	     45.95920905	     24.74058561	      1.75649238	      0.00000000	    -27.71729393	     -1.28682852	      0.19016869	     20.12638865	     -5.89956178	     15.45308350	     38.58696535	     90.02180893	     32.03592319	     -2.44914373	     45.70950712	     29.09061500	     69.92046727
